# xmcd
#
# Track frame offsets:
#	150
#	14170
#	29553
#	41586
#	55421
#	67992
#	80174
#	93513
#	104299
#	116330
#
# Disc length: 1684
#
# Revision: 3
# Processed by: cddbd v1.5.1PL0 Copyright (c) Steve Scherf et al.
# Submitted via: ExactAudioCopy v0.90b4
# Normalized: r2:DSETVAR1
#
DISCID=8706920a
DTITLE=Various Artist - Royal Blues
DYEAR=1998
DGENRE=Blues
TTITLE0=Charles Brown - Black Night
TTITLE1=Gatemouth Moore - Everybody Has Their Turn
TTITLE2=Bo Diddley - Walkin' and Talkin'
TTITLE3=Elmore James - Hand In Hand
TTITLE4=John Lee Hooker - Hobo Blues
TTITLE5=John Mayall - Lost And Gone
TTITLE6=Dinah Washington - Chewin' Mama Blues
TTITLE7=Billie Holiday - Nobody's Business
TTITLE8=Lightnin' Hopkins - Have You Ever Loved A Woman
TTITLE9=Leadbelly - On A Monday
EXTD=
EXTT0=
EXTT1=
EXTT2=
EXTT3=
EXTT4=
EXTT5=
EXTT6=
EXTT7=
EXTT8=
EXTT9=
PLAYORDER=
